<svg width="30" height="30" viewBox="0 0 30 30" fill="none" xmlns="http://www.w3.org/2000/svg">
<path d="M16.9688 24.0947C17.3757 24.0948 17.752 24.3119 17.9551 24.6641C18.1579 25.0161 18.1571 25.4494 17.9531 25.8008C17.6531 26.3174 17.2223 26.7468 16.7041 27.0449C16.1859 27.343 15.5981 27.5 15 27.5C14.4019 27.5 13.8142 27.3431 13.2959 27.0449C12.7776 26.7468 12.347 26.3175 12.0469 25.8008C11.8429 25.4493 11.8421 25.0161 12.0449 24.6641C12.2481 24.3118 12.6243 24.0947 13.0313 24.0947H16.9688ZM15 2.5C17.0943 2.5 19.0997 3.34164 20.5762 4.83496C22.0522 6.32805 22.8789 8.3507 22.8789 10.4561C22.879 14.2687 23.6857 16.6367 24.4287 18.0146C24.8016 18.7061 25.1642 19.1598 25.416 19.4287C25.5422 19.5635 25.6417 19.653 25.7012 19.7031C25.7307 19.728 25.7503 19.7436 25.7588 19.75L25.7617 19.752C26.1668 20.0336 26.345 20.545 26.2002 21.0176C26.0538 21.4951 25.6123 21.8211 25.1123 21.8213H4.88772C4.38771 21.8211 3.94623 21.4951 3.79983 21.0176C3.65503 20.545 3.8332 20.0336 4.2383 19.752L4.24123 19.75C4.24978 19.7436 4.26934 19.728 4.29885 19.7031C4.35832 19.653 4.4578 19.5635 4.58401 19.4287C4.83581 19.1598 5.19846 18.7061 5.57131 18.0146C6.31431 16.6367 7.12108 14.2687 7.12111 10.4561C7.12112 8.3507 7.94784 6.32805 9.42385 4.83496C10.9003 3.34165 12.9058 2.5 15 2.5Z" fill="#F38F1D"/>
</svg>
