<svg width="20" height="17" viewBox="0 0 20 17" fill="none" xmlns="http://www.w3.org/2000/svg">
<path d="M1 7.00024H2.04548M2.04548 7.00024H17.9545M2.04548 7.00024C2.05661 6.94878 2.06977 6.89776 2.08496 6.84736C2.12122 6.72707 2.17242 6.61139 2.27539 6.37972L3.82165 2.90063C4.12737 2.21278 4.28048 1.86865 4.5221 1.61646C4.73568 1.39353 4.99764 1.22325 5.28809 1.11862C5.61667 1.00024 5.99336 1.00024 6.74609 1.00024H13.2536C14.0063 1.00024 14.3833 1.00024 14.7119 1.11862C15.0024 1.22325 15.264 1.39353 15.4775 1.61646C15.719 1.86848 15.8718 2.21232 16.1771 2.89925L17.7296 6.39237C17.8289 6.61565 17.8794 6.72928 17.915 6.84736C17.9301 6.89776 17.9433 6.94878 17.9545 7.00024M2.04548 7.00024C2.03302 7.05788 2.0231 7.11607 2.01572 7.17456C2 7.2992 2 7.42592 2 7.67944V13.0002M17.9545 7.00024H19M17.9545 7.00024C17.967 7.05788 17.977 7.11607 17.9844 7.17456C18 7.29845 18 7.42442 18 7.67489V13.0004M18 13.0004L14 13.0003M18 13.0004V14.0001C18 15.1047 17.1046 16.0002 16 16.0002C14.8954 16.0002 14 15.1048 14 14.0002V13.0003M14 13.0003L6 13.0002M6 13.0002H2M6 13.0002V14.0002C6 15.1048 5.10457 16.0002 4 16.0002C2.89543 16.0002 2 15.1048 2 14.0002V13.0002" stroke="#223BAB" stroke-width="2" stroke-linecap="round" stroke-linejoin="round"/>
</svg>
