<svg width="24" height="26" viewBox="0 0 24 26" fill="none" xmlns="http://www.w3.org/2000/svg">
<path d="M10.0895 0.508454L0.962041 7.51414C0.355539 7.97965 0 8.70073 0 9.46529V23.8783C0 24.5575 0.550605 25.1081 1.22981 25.1081H6.49493C7.17414 25.1081 7.72474 24.5575 7.72474 23.8783V17.3258C7.72474 16.6466 8.27535 16.0959 8.95455 16.0959H14.2197C14.8989 16.0959 15.4495 16.6466 15.4495 17.3258V23.8783C15.4495 24.5575 16.0001 25.1081 16.6793 25.1081H21.9444C22.6236 25.1081 23.1742 24.5575 23.1742 23.8783V9.46529C23.1742 8.70073 22.8187 7.97965 22.2122 7.51414L13.0847 0.508455C12.2014 -0.169504 10.9728 -0.169505 10.0895 0.508454Z" fill="#9FA0A2"/>
</svg>
