<svg width="26" height="26" viewBox="0 0 26 26" fill="none" xmlns="http://www.w3.org/2000/svg">
<path d="M22.0398 2.59292H20.7434V1.29646C20.7434 0.518584 20.2248 0 19.4469 0C18.669 0 18.1504 0.518584 18.1504 1.29646V2.59292H7.77876V1.29646C7.77876 0.518584 7.26018 0 6.4823 0C5.70442 0 5.18584 0.518584 5.18584 1.29646V2.59292H3.88938C1.6854 2.59292 0 4.27832 0 6.4823V7.77876H25.9292V6.4823C25.9292 4.27832 24.2438 2.59292 22.0398 2.59292ZM0 22.0398C0 24.2438 1.6854 25.9292 3.88938 25.9292H22.0398C24.2438 25.9292 25.9292 24.2438 25.9292 22.0398V10.3717H0V22.0398ZM19.4469 12.9646C20.2248 12.9646 20.7434 13.4832 20.7434 14.2611C20.7434 15.0389 20.2248 15.5575 19.4469 15.5575C18.669 15.5575 18.1504 15.0389 18.1504 14.2611C18.1504 13.4832 18.669 12.9646 19.4469 12.9646ZM19.4469 18.1504C20.2248 18.1504 20.7434 18.669 20.7434 19.4469C20.7434 20.2248 20.2248 20.7434 19.4469 20.7434C18.669 20.7434 18.1504 20.2248 18.1504 19.4469C18.1504 18.669 18.669 18.1504 19.4469 18.1504ZM12.9646 12.9646C13.7425 12.9646 14.2611 13.4832 14.2611 14.2611C14.2611 15.0389 13.7425 15.5575 12.9646 15.5575C12.1867 15.5575 11.6681 15.0389 11.6681 14.2611C11.6681 13.4832 12.1867 12.9646 12.9646 12.9646ZM12.9646 18.1504C13.7425 18.1504 14.2611 18.669 14.2611 19.4469C14.2611 20.2248 13.7425 20.7434 12.9646 20.7434C12.1867 20.7434 11.6681 20.2248 11.6681 19.4469C11.6681 18.669 12.1867 18.1504 12.9646 18.1504ZM6.4823 12.9646C7.26018 12.9646 7.77876 13.4832 7.77876 14.2611C7.77876 15.0389 7.26018 15.5575 6.4823 15.5575C5.70442 15.5575 5.18584 15.0389 5.18584 14.2611C5.18584 13.4832 5.70442 12.9646 6.4823 12.9646ZM6.4823 18.1504C7.26018 18.1504 7.77876 18.669 7.77876 19.4469C7.77876 20.2248 7.26018 20.7434 6.4823 20.7434C5.70442 20.7434 5.18584 20.2248 5.18584 19.4469C5.18584 18.669 5.70442 18.1504 6.4823 18.1504Z" fill="#9FA0A2"/>
</svg>
