<svg width="20" height="25" viewBox="0 0 20 25" fill="none" xmlns="http://www.w3.org/2000/svg">
<path d="M18.6729 0C19.2794 8.50017e-05 19.7714 0.492109 19.7715 1.09863V23.0664C19.7715 23.673 19.2794 24.165 18.6729 24.165H3.84473C2.82515 24.165 1.84693 23.76 1.12598 23.0391C0.405018 22.3181 0 21.3399 0 20.3203V3.84473C0 2.82514 0.405018 1.84693 1.12598 1.12598C1.84692 0.405106 2.8252 0 3.84473 0H18.6729ZM4.39355 17.0254C2.87703 17.0254 1.64746 18.2549 1.64746 19.7715C1.64753 21.288 2.87707 22.5175 4.39355 22.5176H18.123V17.0254H4.39355Z" fill="#9FA0A2"/>
</svg>
