<svg width="24" height="24" viewBox="0 0 24 24" fill="none" xmlns="http://www.w3.org/2000/svg">
<path d="M7.09961 3C8.2664 3 9.38581 3.44471 10.2109 4.23633C11.0361 5.02815 11.5 6.10285 11.5 7.22266V22C11.5 21.1601 11.1521 20.3546 10.5332 19.7607C9.9144 19.167 9.07526 18.8331 8.2002 18.833H1.5C0.947715 18.833 0.5 18.3853 0.5 17.833V4C0.5 3.44772 0.947715 3 1.5 3H7.09961ZM22.5 3C23.0523 3 23.5 3.44772 23.5 4V17.833C23.5 18.3853 23.0523 18.833 22.5 18.833H15.7998C14.9247 18.8331 14.0856 19.167 13.4668 19.7607C12.8479 20.3546 12.5 21.1601 12.5 22V7.22266C12.5 6.10285 12.9639 5.02815 13.7891 4.23633C14.6142 3.44471 15.7336 3 16.9004 3H22.5Z" fill="white"/>
</svg>
