<svg width="40" height="40" viewBox="0 0 40 40" fill="none" xmlns="http://www.w3.org/2000/svg">
<circle cx="20" cy="20" r="20" fill="white"/>
<path d="M10.7001 18.0001L10.6001 19.3501L10.9001 19.2001L11.1501 19.1001L11.5501 19.0001L11.9001 18.9001L12.3001 18.8001L12.5001 18.7501L12.9001 18.6501L13.3501 18.5501L13.6501 18.5001L14.1501 18.4001L14.6001 18.3501L14.9001 18.3001L15.3501 18.2501L15.7001 18.2001L16.0001 18.1501L16.4501 18.1001L16.8501 18.0501L17.3001 18.0001H17.5501H17.9001H18.4501H18.8001H19.5001H20.3501H20.9501H21.4001H22.0001H22.7001L23.5001 18.0501L23.9501 18.1001L24.2501 18.1501L24.6001 18.2001L25.0001 18.2501L25.4001 18.3001L25.8001 18.4001L26.3001 18.5001L26.8001 18.6001L27.2001 18.7001L27.6001 18.8001L28.1501 18.9501L28.5501 19.1001L28.8501 19.2501L29.4001 19.5001V19.4001V19.2001L29.3501 18.8001L29.3001 18.4501L29.2501 18.1001L29.2001 17.8001L29.1501 17.4501L29.1001 17.1001L29.0501 16.7501L28.9501 16.4001L28.8501 16.1001L28.7501 15.8001L28.6501 15.5001L28.5501 15.2001L28.4001 14.7001L28.1501 13.9501L27.9501 13.4001L27.8001 13.0001L27.6001 12.6001L27.3501 12.1501L27.1001 11.7501L26.7501 11.2001L26.4001 10.8001L25.9501 10.2501L25.6001 9.90007L25.3001 9.60007L25.0001 9.35007L24.7001 9.10007L24.3501 8.85007L23.9501 8.60007L23.5501 8.35007L23.1001 8.10007L22.5501 7.90007L22.0001 7.75007L21.4501 7.65007L20.7001 7.60007H20.0001H19.5001L18.9001 7.65007L18.4001 7.70007L17.9001 7.80007L17.5001 7.90007L16.7501 8.15007L16.1501 8.40007L15.8501 8.55007L15.5001 8.80007L15.0001 9.15007L14.7501 9.35007L14.4501 9.65007L14.2001 9.90007L13.8501 10.3001L13.4501 10.8001L13.1501 11.2001L12.7001 11.8501L12.2501 12.7501L11.7001 14.0001L11.4501 14.6501L11.3001 15.1501L11.1001 15.9001L10.8501 17.0001L10.7001 18.0001Z" fill="#0377FF" stroke="#085ECD" stroke-width="0.400003"/>
<path d="M21.05 7.64999H20.75V9.74999L20.85 9.94999L21.05 10.05H21.3L21.45 9.94999L21.55 9.74999V8.39999V7.69999L21.45 7.64999H21.05Z" fill="#085ECD" stroke="#085ECD" stroke-width="0.400003"/>
<path d="M18.6823 7.75102L18.3999 7.80208V7.85314V9.33399V9.69144L18.494 9.94676L18.6352 10.0489L18.8499 10.05L19.0117 10.0489L19.1528 9.94676L19.1999 9.7425V9.48719V9.07867V8.67016V8.26165V7.69995H19.1058H18.9175L18.6823 7.75102Z" fill="#085ECD" stroke="#085ECD" stroke-width="0.400003"/>
<path d="M19.8668 7.69995H19.6001V9.75527L19.7001 9.94995L19.8501 10.05H20.0001H20.1501L20.3001 9.94995L20.4001 9.75527V8.28719V7.69995H20.3468H20.1334H19.8668Z" fill="#085ECD" stroke="#085ECD" stroke-width="0.400003"/>
<path d="M10.9499 19.2499L10.6499 19.3499L10.8499 19.0999L11.1999 18.7499L11.5499 18.4499L11.7999 18.2499L12.1999 18.0499L12.5999 17.8499L12.9499 17.6499L13.3499 17.4999L13.8499 17.2999L14.2499 17.1499L14.8499 16.9499L15.5499 16.7499L16.0499 16.6499L16.5499 16.5499L17.2499 16.4499L17.7999 16.3999H18.3999H19.1499H19.6999H20.3499H20.9499H21.5999L22.2499 16.4499L22.8499 16.4999L23.4999 16.5999L24.1499 16.6999L24.6999 16.8499L25.1999 16.9999L25.8499 17.1999L26.2499 17.3499L26.6999 17.5499L27.1499 17.7499L27.6499 18.0499L28.1499 18.3499L28.6999 18.6999L29.0499 18.9999L29.3999 19.4999L29.0999 19.3499L28.6999 19.1499L28.0999 18.8999L27.5499 18.7499L26.9499 18.5999L26.4499 18.4999L25.8499 18.3499L24.9999 18.1999L24.2499 18.0999L23.4999 18.0499L22.2499 17.9499H21.4499H20.3999H19.5999H18.7499L17.6499 17.9999L16.7999 18.0499L15.8999 18.1499L15.2999 18.1999L14.7499 18.2499L14.2499 18.3499L13.7999 18.4499L13.3499 18.5499L12.8999 18.6499L12.4999 18.7499L12.1499 18.8499L11.6499 18.9999L11.2499 19.1499L10.9499 19.2499Z" fill="#085ECD" stroke="#085ECD" stroke-width="0.400003"/>
<path d="M20.3501 28.1L20.1001 28.35L20.0001 28.2L19.9001 28.1L19.7001 28H19.0501L18.8001 28.05L18.4001 28.25L18.1501 28.4L17.8501 28.65L17.6501 28.8L17.4001 29L17.2001 29.15L16.9001 29.45L16.5001 29.8L16.0501 30.05H15.1001L14.9501 29.95L14.8501 29.8L14.8001 29.65L14.8501 29.55L14.9001 29.45L15.0001 29.4L15.2001 29.35V28.95H15.1001H14.8501L14.6001 29L14.3501 29.2L14.2001 29.35L14.1001 29.6V30.3L14.2501 30.65L14.5001 30.95L14.8501 31.25L15.4001 31.5H16.9501L17.5501 31.35L18.1501 31.15L18.4501 31.05L18.8501 30.75L19.2001 30.55L19.6501 30.25L19.8501 30L20.0001 29.8L20.1001 29.6H20.2001L20.3501 29.9L20.5501 30.15L20.8501 30.4L21.1501 30.6L21.5501 30.8L21.9001 30.95L22.3501 31.15L22.8501 31.35L23.3001 31.45H23.8501H24.7001L25.0001 31.35L25.3501 31.2L25.6001 31.05L25.8501 30.85L26.1001 30.55L26.2501 30.3V30L26.2001 29.5L26.1001 29.25L25.8501 29.1L25.6501 29L25.2501 28.95V29.25L25.4001 29.35L25.5501 29.45V29.65L25.4501 29.85L25.3001 30L25.0001 30.1H24.6501H24.1001L23.9001 29.95L23.7001 29.8L23.4501 29.6L23.2001 29.35L22.8501 29L22.6501 28.8L22.3001 28.55L22.0501 28.35L21.8501 28.2L21.4501 28H20.5001L20.3501 28.1Z" fill="#C0936A" stroke="#9E7C5D" stroke-width="0.400003"/>
<path d="M14.1289 19.8521L15.1787 20.0025L15.2002 20.0054L15.2207 20.0132L16.0156 20.3111L16.6992 20.5064L17.5938 20.7046L17.6133 20.7105L18.3506 20.9556L19.168 21.1001H20.7334L21.7207 20.9527L22.4482 20.8062L23.2832 20.5113L23.2871 20.5103L23.8779 20.313L24.5283 20.064L24.54 20.0591L24.5518 20.0562L25.1514 19.9068L25.167 19.9029L25.1816 19.9009L25.7324 19.8511L25.7412 19.8501H26.5127L26.5254 19.8521L26.9248 19.9019L26.9521 19.9048L26.9775 19.9156L27.5771 20.1656L27.6016 20.1763L27.623 20.1929L28.0732 20.5425L28.0986 20.562L28.1162 20.5894L28.417 21.0396L28.4336 21.064L28.4414 21.0933L28.5918 21.5933L28.5947 21.6031L28.5967 21.6138L28.7471 22.4136L28.75 22.4322V23.7124L28.749 23.7251L28.6484 24.5249L28.6465 24.5425L28.6416 24.5591L28.4414 25.2095L28.4375 25.2202L28.4326 25.232L28.2334 25.6812L28.2275 25.6929L28.2217 25.7036L27.9219 26.2036L27.9082 26.2232L27.5576 26.6734L27.5537 26.6792L27.5479 26.6851L27.0479 27.2349L27.0352 27.2486L27.0205 27.2603L26.6201 27.5601L26.6055 27.5708L26.5898 27.5796L25.9893 27.8794L25.9697 27.8892L25.9482 27.8941L25.5488 27.9947L25.5391 27.9966L25.0391 28.0962L25.0195 28.1001H24.3203L24.291 28.0913L23.6416 27.8911L23.6221 27.8853L23.6045 27.8755L23.0547 27.5757L23.0469 27.5718L23.0391 27.5669L22.7393 27.3667L22.7256 27.357L22.2256 26.9566L22.2217 26.9536L21.9219 26.7036L21.915 26.6978L21.5088 26.2915L21.499 26.2827L21.5 26.2818L21.1494 25.8824L20.165 24.898L19.9932 24.7544L19.9307 24.8013L19.5488 25.1841L19.0586 25.8218L19.0518 25.8316L18.4014 26.5816L18.3906 26.5933L18.3779 26.604L17.7783 27.104L17.7705 27.1109L17.7607 27.1167L17.1611 27.5171L17.1475 27.5259L17.1318 27.5327L16.2314 27.9331L16.207 27.9439L16.1797 27.9478L15.1797 28.0982L15.1523 28.1021L15.125 28.0992L14.3252 27.9986L14.291 27.9947L14.2607 27.979L13.4609 27.5796L13.4482 27.5728L13.4365 27.565L12.7861 27.1148L12.7646 27.1001L12.7471 27.0796L12.1973 26.4292L12.1807 26.4097L12.1689 26.3853L11.7695 25.5357L11.7637 25.523L11.4141 24.6226L11.4062 24.604L11.4033 24.5855L11.2529 23.7349L11.25 23.7183V22.1294L11.2549 22.1079L11.4043 21.4087L11.416 21.356L11.4521 21.3159L11.9521 20.7661L11.959 20.7583L11.9678 20.7505L12.417 20.3511L12.4395 20.3316L12.4668 20.3189L13.1162 20.0191L13.1406 20.0074L13.167 20.0034L14.0674 19.8531L14.0977 19.8482L14.1289 19.8521ZM24.8945 20.9585L24.5449 21.0581V21.0591L23.9971 21.2076L23.9795 21.2134L23.5791 21.3638L23.5713 21.3667L23.2207 21.5171L23.2158 21.5191L22.5664 21.8189H22.5654L22.5547 21.8247L21.9053 22.1743L21.8789 22.189L21.8584 22.2095L21.5615 22.5054L21.2197 22.7993L21.208 22.8091L20.9082 23.1099L20.8496 23.1685V23.6255L20.8555 23.649L20.9561 24.0493L20.9629 24.0786L20.9785 24.104L21.1279 24.354L21.1338 24.3618L21.333 24.6617L21.5801 25.0572L21.5869 25.0669L21.8369 25.4175L21.8428 25.4263L21.8506 25.4341L22.2461 25.8784V25.8794L22.4961 26.1792L22.5107 26.1968L22.5303 26.2105L22.9297 26.5113L22.9492 26.5249L22.9707 26.5347L23.3135 26.6812L23.6504 26.8745L23.668 26.8843L23.6865 26.8902L24.2861 27.0904L24.3174 27.1011H25.2197L25.2393 27.0972L25.7393 26.9966L25.7871 26.9878L25.8252 26.9576L26.0742 26.7564L26.3604 26.5669L26.3682 26.562L26.375 26.5572L26.625 26.357L26.6426 26.3433L26.6562 26.3257L26.8564 26.0757L26.8633 26.0669L26.8691 26.0572L27.1191 25.6568L27.1289 25.6421L27.1357 25.6255L27.3359 25.1255L27.5352 24.6255L27.542 24.6099L27.5449 24.5943L27.6455 24.1441V24.1402L27.7461 23.6402L27.75 23.6206V22.1089L27.7324 22.0699L27.5322 21.6197L27.5117 21.5718L27.4697 21.5406L27.2803 21.399L26.9541 21.0728L26.9043 21.0581L26.5547 20.9585L26.5273 20.9507H24.9219L24.8945 20.9585ZM14.0898 20.8999L14.0801 20.9009L13.5801 20.9507L13.5518 20.9536L13.5254 20.9644L13.0254 21.1646L12.9814 21.1822L12.9502 21.2173L12.5508 21.6675L12.5381 21.6812L12.5283 21.6968L12.3789 21.9468L12.3574 21.982L12.3516 22.022L12.3018 22.3716L12.2998 22.3863V22.8111L12.3008 22.8218L12.3516 23.271L12.3506 23.272L12.3525 23.2808L12.4521 23.9302L12.4541 23.939L12.5537 24.439L12.5557 24.4488L12.6562 24.8482L12.6572 24.855L12.7578 25.2046L12.7676 25.2378L12.7871 25.2661L13.0371 25.6167L13.2871 25.9663L13.2969 25.98L13.5166 26.1997L13.5254 26.2066L13.7744 26.4058V26.4068L13.7842 26.4126L14.1338 26.6626L14.1465 26.6724L14.1602 26.6792L14.46 26.8277V26.8296L14.4717 26.8335L14.8213 26.9839L14.8594 27.0005H15.3604L15.3701 26.9995L15.8701 26.9488L15.8877 26.9478L15.9053 26.9429L16.2549 26.8423L16.2686 26.8384L16.2812 26.8326L16.7314 26.6333L16.752 26.6236L16.7695 26.6099L17.166 26.313L17.5166 26.063L17.5293 26.0533L17.999 25.5835L18.4482 25.0835L18.458 25.0728L18.4668 25.0611L18.7666 24.6109L18.7715 24.6031L19.0713 24.1031L19.0879 24.0747L19.0957 24.0435L19.1953 23.5933L19.2051 23.5474L19.1943 23.5015L19.0938 23.1021L19.083 23.0562L19.0518 23.0201L18.752 22.6704L18.7471 22.6646L18.4414 22.3589L18.4316 22.3482L18.4199 22.3404L18.0195 22.0406L18.0088 22.0318L17.9971 22.0249L17.5469 21.7749L17.5352 21.7681L17.5215 21.7632L16.8721 21.5132L16.8633 21.5103L16.2637 21.3101L16.2598 21.3091L15.46 21.0591L15.4512 21.0562L15.4424 21.0542L14.7422 20.9048L14.7207 20.8999H14.0898Z" fill="url(#paint0_linear_1901_210)"/>
<path d="M19.8501 21.2999H19.6001V22.7499L19.7001 22.8499L19.8501 22.8999H20.1001L20.2501 22.8499L20.4001 22.7499V22.4999V21.9999V21.2999H20.3001H20.2001H20.0001H19.8501Z" fill="#B6540B"/>
<defs>
<linearGradient id="paint0_linear_1901_210" x1="20" y1="19.8482" x2="20" y2="28.1021" gradientUnits="userSpaceOnUse">
<stop stop-color="#F38F1D"/>
<stop offset="1" stop-color="#E56336"/>
</linearGradient>
</defs>
</svg>
