<svg width="667" height="667" viewBox="0 0 667 667" fill="none" xmlns="http://www.w3.org/2000/svg">
<path d="M333.333 0C267.406 0 202.96 19.5497 148.143 56.1768C93.327 92.8039 50.6028 144.863 25.3736 205.772C0.144428 266.681 -6.45668 333.703 6.40506 398.363C19.2668 463.024 51.0137 522.418 97.6312 569.036C144.249 615.653 203.643 647.4 268.303 660.262C332.964 673.124 399.986 666.522 460.895 641.293C521.803 616.064 573.863 573.34 610.49 518.523C647.117 463.707 666.667 399.26 666.667 333.333C666.667 289.559 658.045 246.214 641.293 205.772C624.542 165.33 599.989 128.584 569.036 97.6311C538.083 66.6782 501.336 42.1251 460.895 25.3735C420.453 8.62192 377.107 0 333.333 0ZM333.333 66.6667C385.942 66.6886 437.369 82.2711 481.142 111.453C524.916 140.635 559.079 182.113 579.333 230.667C498.927 210.257 416.29 199.955 333.333 200C250.12 200.012 167.241 210.539 86.6668 231.333C106.862 182.55 141.084 140.86 184.997 111.545C228.909 82.2308 280.535 66.6115 333.333 66.6667ZM66.6668 355.667L103.667 351.333C124.134 348.934 144.877 350.894 164.532 357.086C184.187 363.277 202.309 373.559 217.705 387.255C233.102 400.952 245.425 417.753 253.864 436.553C262.303 455.353 266.666 475.726 266.667 496.333V591.333C212.983 577.688 164.881 547.665 129.04 505.432C93.1992 463.2 71.399 410.855 66.6668 355.667ZM400 591.333V496.333C400.017 475.821 404.356 455.542 412.735 436.818C421.114 418.095 433.344 401.347 448.628 387.666C463.913 373.986 481.909 363.679 501.443 357.419C520.977 351.159 541.611 349.085 562 351.333L599 355.667C594.334 410.725 572.68 462.974 537.031 505.191C501.382 547.409 453.498 577.51 400 591.333Z" fill="white"/>
</svg>
